<svg xmlns="http://www.w3.org/2000/svg" xmlns:xlink="http://www.w3.org/1999/xlink" width="500" zoomAndPan="magnify" viewBox="0 0 375 374.999991" height="500" preserveAspectRatio="xMidYMid meet" version="1.2"><defs><clipPath id="84fead19d9"><path d="M 276.894531 132 L 316 132 L 316 171.636719 L 276.894531 171.636719 Z M 276.894531 132 "/></clipPath><clipPath id="4dd456d7f2"><path d="M 305 129.636719 L 318.894531 129.636719 L 318.894531 143 L 305 143 Z M 305 129.636719 "/></clipPath></defs><g id="900d8e1e81"><g clip-rule="nonzero" clip-path="url(#84fead19d9)"><path style=" stroke:none;fill-rule:nonzero;fill:#005eff;fill-opacity:1;" d="M 296.753906 132.546875 L 297.246094 136.976562 C 298.058594 144.335938 303.867188 150.140625 311.222656 150.957031 L 315.652344 151.445312 C 316.011719 151.484375 316.011719 152.007812 315.652344 152.046875 L 311.222656 152.539062 C 303.867188 153.351562 298.058594 159.160156 297.246094 166.515625 L 296.753906 170.945312 C 296.714844 171.304688 296.191406 171.304688 296.152344 170.945312 L 295.664062 166.515625 C 294.847656 159.160156 289.042969 153.351562 281.6875 152.539062 L 277.253906 152.046875 C 276.894531 152.007812 276.894531 151.484375 277.253906 151.445312 L 281.6875 150.957031 C 289.042969 150.140625 294.847656 144.335938 295.664062 136.976562 L 296.152344 132.546875 C 296.191406 132.1875 296.714844 132.1875 296.753906 132.546875 Z M 296.753906 132.546875 "/></g><path style=" stroke:none;fill-rule:nonzero;fill:#005eff;fill-opacity:1;" d="M 308.671875 160.914062 C 308.867188 162.601562 310.203125 163.925781 311.890625 164.101562 L 311.960938 164.109375 C 312.140625 164.128906 312.140625 164.390625 311.960938 164.410156 L 311.890625 164.417969 C 310.203125 164.597656 308.867188 165.921875 308.671875 167.605469 C 308.648438 167.785156 308.390625 167.785156 308.371094 167.605469 C 308.175781 165.921875 306.835938 164.597656 305.148438 164.417969 L 305.078125 164.410156 C 304.898438 164.390625 304.898438 164.128906 305.078125 164.109375 L 305.148438 164.101562 C 306.835938 163.925781 308.175781 162.601562 308.371094 160.914062 C 308.390625 160.738281 308.648438 160.738281 308.671875 160.914062 Z M 308.671875 160.914062 "/><g clip-rule="nonzero" clip-path="url(#4dd456d7f2)"><path style=" stroke:none;fill-rule:nonzero;fill:#005eff;fill-opacity:1;" d="M 312.453125 129.902344 L 312.59375 131.160156 C 312.863281 133.613281 314.800781 135.550781 317.253906 135.820312 L 318.519531 135.960938 C 318.777344 135.988281 318.777344 136.367188 318.519531 136.394531 L 317.253906 136.535156 C 314.800781 136.804688 312.863281 138.742188 312.59375 141.195312 L 312.453125 142.453125 C 312.425781 142.714844 312.046875 142.714844 312.019531 142.453125 L 311.878906 141.195312 C 311.605469 138.742188 309.671875 136.804688 307.214844 136.535156 L 305.953125 136.394531 C 305.691406 136.367188 305.691406 135.988281 305.953125 135.960938 L 307.214844 135.820312 C 309.671875 135.550781 311.605469 133.613281 311.878906 131.160156 L 312.019531 129.902344 C 312.046875 129.644531 312.425781 129.644531 312.453125 129.902344 Z M 312.453125 129.902344 "/></g><g style="fill:#000000;fill-opacity:1;"><g transform="translate(16.06343, 209.936631)"><path style="stroke:none" d="M 2.3125 0 L 2.3125 -33.328125 L 38.890625 -33.328125 L 38.890625 -23.140625 L 17.125 -23.140625 L 17.125 -18.75 L 36.109375 -18.75 L 36.109375 -10.640625 L 17.125 -10.640625 L 17.125 0 Z M 2.3125 0 "/></g></g><g style="fill:#000000;fill-opacity:1;"><g transform="translate(52.631684, 209.936631)"><path style="stroke:none" d="M -0.046875 0 L 16.25 -33.328125 L 33.375 -33.328125 L 49.171875 0 L 33.84375 0 L 31.859375 -5.09375 L 17.21875 -5.09375 L 15.234375 0 Z M 19.71875 -12.96875 L 29.359375 -12.96875 L 24.625 -24.578125 L 24.53125 -24.578125 Z M 19.71875 -12.96875 "/></g></g><g style="fill:#000000;fill-opacity:1;"><g transform="translate(99.476126, 209.936631)"><path style="stroke:none" d="M 26.296875 0.6875 C 21.234375 0.6875 16.832031 0.0078125 13.09375 -1.34375 C 9.363281 -2.695312 6.476562 -4.660156 4.4375 -7.234375 C 2.40625 -9.816406 1.390625 -12.960938 1.390625 -16.671875 C 1.390625 -20.210938 2.34375 -23.28125 4.25 -25.875 C 6.164062 -28.46875 8.890625 -30.472656 12.421875 -31.890625 C 15.960938 -33.316406 20.125 -34.03125 24.90625 -34.03125 C 28.675781 -34.03125 32.078125 -33.535156 35.109375 -32.546875 C 38.148438 -31.554688 40.679688 -30.148438 42.703125 -28.328125 C 44.722656 -26.515625 46.09375 -24.359375 46.8125 -21.859375 L 33.328125 -19.3125 C 32.835938 -20.695312 31.875 -21.796875 30.4375 -22.609375 C 29 -23.429688 27.296875 -23.84375 25.328125 -23.84375 C 22.546875 -23.84375 20.328125 -23.191406 18.671875 -21.890625 C 17.023438 -20.597656 16.203125 -18.859375 16.203125 -16.671875 C 16.203125 -14.472656 17.148438 -12.722656 19.046875 -11.421875 C 20.941406 -10.128906 23.5 -9.484375 26.71875 -9.484375 C 29.34375 -9.484375 31.515625 -9.992188 33.234375 -11.015625 C 34.960938 -12.035156 35.984375 -13.410156 36.296875 -15.140625 L 49.953125 -12.921875 C 49.460938 -10.140625 48.160156 -7.726562 46.046875 -5.6875 C 43.929688 -3.65625 41.191406 -2.082031 37.828125 -0.96875 C 34.460938 0.132812 30.617188 0.6875 26.296875 0.6875 Z M 26.296875 0.6875 "/></g></g><g style="fill:#000000;fill-opacity:1;"><g transform="translate(149.421972, 209.936631)"><path style="stroke:none" d="M 12.5 0 L 12.5 -23.140625 L 0.46875 -23.140625 L 0.46875 -33.328125 L 39.359375 -33.328125 L 39.359375 -23.140625 L 27.3125 -23.140625 L 27.3125 0 Z M 12.5 0 "/></g></g><g style="fill:#000000;fill-opacity:1;"><g transform="translate(189.230529, 209.936631)"><path style="stroke:none" d="M 24.3125 0.6875 C 17.082031 0.6875 11.53125 -0.691406 7.65625 -3.453125 C 3.789062 -6.210938 1.859375 -10.15625 1.859375 -15.28125 L 1.859375 -33.328125 L 16.671875 -33.328125 L 16.671875 -16.203125 C 16.671875 -14.046875 17.332031 -12.425781 18.65625 -11.34375 C 19.976562 -10.257812 21.863281 -9.71875 24.3125 -9.71875 C 26.78125 -9.71875 28.664062 -10.257812 29.96875 -11.34375 C 31.28125 -12.425781 31.9375 -14.046875 31.9375 -16.203125 L 31.9375 -33.328125 L 46.765625 -33.328125 L 46.765625 -15.28125 C 46.765625 -10.15625 44.828125 -6.210938 40.953125 -3.453125 C 37.078125 -0.691406 31.53125 0.6875 24.3125 0.6875 Z M 24.3125 0.6875 "/></g></g><g style="fill:#000000;fill-opacity:1;"><g transform="translate(237.834007, 209.936631)"><path style="stroke:none" d="M 39.484375 0.921875 C 37.546875 0.921875 35.90625 0.609375 34.5625 -0.015625 C 33.21875 -0.648438 32.070312 -1.453125 31.125 -2.421875 C 30.1875 -3.398438 29.347656 -4.367188 28.609375 -5.328125 L 26.90625 -7.546875 C 26.15625 -8.503906 25.28125 -9.179688 24.28125 -9.578125 C 23.28125 -9.984375 22.207031 -10.1875 21.0625 -10.1875 L 17.125 -10.1875 L 17.125 0 L 2.3125 0 L 2.3125 -33.328125 L 31.625 -33.328125 C 36.34375 -33.328125 39.96875 -32.382812 42.5 -30.5 C 45.03125 -28.625 46.296875 -25.941406 46.296875 -22.453125 C 46.296875 -19.953125 45.46875 -17.859375 43.8125 -16.171875 C 42.164062 -14.492188 39.816406 -13.316406 36.765625 -12.640625 L 36.765625 -12.59375 C 37.222656 -12.46875 37.675781 -12.234375 38.125 -11.890625 C 38.570312 -11.554688 39 -11.140625 39.40625 -10.640625 L 41.71875 -7.828125 C 42.050781 -7.421875 42.457031 -7.101562 42.9375 -6.875 C 43.414062 -6.644531 43.992188 -6.53125 44.671875 -6.53125 C 45.015625 -6.53125 45.425781 -6.585938 45.90625 -6.703125 C 46.382812 -6.828125 46.742188 -7 46.984375 -7.21875 L 48.9375 -1.53125 C 48.289062 -1.0625 47.429688 -0.640625 46.359375 -0.265625 C 45.296875 0.0976562 44.15625 0.382812 42.9375 0.59375 C 41.71875 0.8125 40.566406 0.921875 39.484375 0.921875 Z M 17.125 -18.0625 L 26.8125 -18.0625 C 28.320312 -18.0625 29.476562 -18.359375 30.28125 -18.953125 C 31.082031 -19.554688 31.484375 -20.414062 31.484375 -21.53125 C 31.484375 -22.632812 31.082031 -23.488281 30.28125 -24.09375 C 29.476562 -24.695312 28.335938 -25 26.859375 -25 L 17.125 -25 Z M 17.125 -18.0625 "/></g></g><g style="fill:#005eff;fill-opacity:1;"><g transform="translate(287.985161, 209.936631)"><path style="stroke:none" d="M 2.3125 0 L 2.3125 -33.328125 L 17.03125 -33.328125 L 17.03125 0 Z M 2.3125 0 "/></g></g><g style="fill:#005eff;fill-opacity:1;"><g transform="translate(307.333972, 209.936631)"><path style="stroke:none" d="M -0.046875 0 L 16.25 -33.328125 L 33.375 -33.328125 L 49.171875 0 L 33.84375 0 L 31.859375 -5.09375 L 17.21875 -5.09375 L 15.234375 0 Z M 19.71875 -12.96875 L 29.359375 -12.96875 L 24.625 -24.578125 L 24.53125 -24.578125 Z M 19.71875 -12.96875 "/></g></g></g></svg>